# xmcd
#
# Track frame offsets:
#	150
#	14140
#	29989
#	48230
#	63251
#	82096
#	98997
#	113698
#	128116
#
# Disc length: 1899 seconds
#
# Revision: 1
# Processed by: cddbd v1.5.1PL0 Copyright (c) Steve Scherf et al.
# Submitted via: dBpowerAMP V4.0
#
DISCID=7c076909
DTITLE=Blue.Skies.At.War - You Pour The Gasoline, I'll Light The Match
DYEAR=2003
DGENRE=Emo
TTITLE0=Etched In Skin
TTITLE1=Even If It Kills Me
TTITLE2=Better Time
TTITLE3=Constant Reminder
TTITLE4=Last Call
TTITLE5=Another Hero Dies
TTITLE6=Looking Back
TTITLE7=Tailor
TTITLE8=No Longer Here
EXTD=
EXTT0=
EXTT1=
EXTT2=
EXTT3=
EXTT4=
EXTT5=
EXTT6=
EXTT7=
EXTT8=
PLAYORDER=
